<?xml version="1.0" encoding="utf-8"?>
<!-- Generator: Adobe Illustrator 25.2.1, SVG Export Plug-In . SVG Version: 6.00 Build 0)  -->
<svg version="1.1" id="Layer_1" xmlns="http://www.w3.org/2000/svg" xmlns:xlink="http://www.w3.org/1999/xlink" x="0px" y="0px"
	 viewBox="0 0 1020.5 136.4" style="enable-background:new 0 0 1020.5 136.4;" xml:space="preserve">
<style type="text/css">
	.st0{fill:#007BFB;}
</style>
<path class="st0" d="M291.4,3.6h45.4l36.6,96.9l36.3-96.9h43.8v129.2h-29.1V34l-37.9,98.8h-29.9l-37.9-98.2v98.2h-27.2V3.6z"/>
<path class="st0" d="M643.5,3.6h100.1v129.2h-31v-102h-40.8c-0.3,18.1-0.8,42.5-1.3,56.1c-1.1,33.9-11,45.9-40,45.9h-13.9v-27.2h7.7
	c13.1,0,17.3-5.9,18.2-24.3C643.2,61.5,643.5,22.3,643.5,3.6z"/>
<path class="st0" d="M901.9,3.6h117.7v27.2h-43.5v102h-30.7v-102h-43.5V3.6z"/>
<path class="st0" d="M211.2,0.9h-11.1c-26.6,0-46.8,16.2-51.4,40.3l28.3,4.5c3.9-11.5,12.8-19.3,24-19.8c2.1-0.1,4.3-0.1,6.4,0
	c16.7,0.6,24.3,8.6,24.3,28.4c-31.7,0-53.3-1.5-69.3,9c-13,8.6-18.6,18.1-18.6,33.1c0,21.8,16.9,39,44.2,39h3.8
	c19.3,0,34.9-7.5,41.2-16.6v13.9h28.5V54.9C261.6,24.9,245.5,0.9,211.2,0.9z M193.8,110.2c-12.1-0.3-19.1-7.4-19.1-16.2
	c0-7.3,3.3-11,7.7-13.5c4.6-2.7,10.6-3.6,19.8-3.9c8.9-0.3,16.1-0.7,30-0.7c0,22-13.9,33.1-31.1,34.3
	C198.7,110.3,196.3,110.3,193.8,110.2z"/>
<path class="st0" d="M894.7,76.9V64.8c0-41.7-26.2-63.2-60-63.2h-6.6c-36.4,0-59.6,24.8-60.8,59.8c-0.2,5.1-0.2,7.3,0,14.3
	c0.8,34.8,25.3,58.3,57.9,59.2c6,0.2,5.2,0.2,10.8,0c28.4-0.8,49.9-17.2,56.3-38.6l-27.5-4.8c-6.7,13.4-19.5,18.6-29.8,19.1
	c-2.3,0.1-4.6,0.1-7,0c-16.1-0.7-30.4-13.2-30.4-31.5v-2L894.7,76.9z M827.6,25.9c2.5-0.2,5.1-0.2,7.7,0
	c13.5,0.7,27.7,9.5,29.1,26.9h-66.5C799.4,37.2,811.9,26.8,827.6,25.9L827.6,25.9z"/>
<path class="st0" d="M608.1,56.8c-0.7-31.3-25.9-55.2-59.2-55.2h-12.1c-33.3,0-58.5,24-59.2,55.4c-0.2,8.7-0.2,13.8,0,22.5
	c0.7,31.4,25.9,55.4,59.2,55.4h12.1c33.3,0,58.5-23.9,59.2-55.4C608.2,70.7,608.2,65.5,608.1,56.8z M577.6,77.8
	c-0.4,18.3-13.6,30.7-31.5,31.6c-2.2,0.2-4.4,0.2-6.6,0c-18-0.9-31.1-13.3-31.5-31.6c-0.2-7.6-0.2-11.9,0-19.5
	c0.4-18.1,13.5-30.5,31.5-31.4c2.2-0.2,4.4-0.2,6.6,0c17.9,0.9,31.2,13.3,31.5,31.6C577.8,66.1,577.8,70.3,577.6,77.8z"/>
<path class="st0" d="M95.8,87.2c-3.6,12-13.2,20.2-26.2,22c-3.5,0.5-7,0.5-10.4,0c-16.1-2.2-27.4-14.3-27.8-31.3
	c-0.2-7.6-0.2-11.9,0-19.5C31.8,41.3,43.7,28.8,60.1,27c2.7-0.3,5.3-0.3,8,0c13.8,1.5,24.1,9.8,27.9,22.3l30-5.8
	C119.5,19,97.3,1.6,68.9,1.6h-8.6C26.9,1.6,1.7,25.5,1,56.9c-0.1,8.7-0.1,13.8,0,22.5c0.7,31.4,25.9,55.4,59.2,55.4h8.6
	c29,0,51.4-18.1,57.3-43.5L95.8,87.2z"/>
</svg>
